<svg xmlns="http://www.w3.org/2000/svg" viewBox="0 0 1600 900" width="1600" height="900">
  <defs>
    <linearGradient id="wallG2" x1="0" y1="0" x2="0" y2="1">
      <stop offset="0" stop-color="#efe6d8"/>
      <stop offset="1" stop-color="#d8cab0"/>
    </linearGradient>
    <linearGradient id="floorG2" x1="0" y1="0" x2="0" y2="1">
      <stop offset="0" stop-color="#9a7752"/>
      <stop offset="1" stop-color="#6b4e30"/>
    </linearGradient>
  </defs>
  <rect width="1600" height="500" fill="url(#wallG2)"/>
  <rect y="500" width="1600" height="400" fill="url(#floorG2)"/>
  <!-- windows -->
  <rect x="120" y="80" width="260" height="320" rx="6" fill="#bcd7e0"/>
  <rect x="120" y="80" width="260" height="320" rx="6" fill="none" stroke="#5f4630" stroke-width="10"/>
  <rect x="1220" y="80" width="260" height="320" rx="6" fill="#bcd7e0"/>
  <rect x="1220" y="80" width="260" height="320" rx="6" fill="none" stroke="#5f4630" stroke-width="10"/>
  <!-- tables -->
  <g>
    <ellipse cx="420" cy="640" rx="110" ry="40" fill="#3d2b1f" opacity="0.35"/>
    <rect x="360" y="560" width="120" height="14" rx="6" fill="#e8ddce"/>
    <rect x="410" y="574" width="20" height="90" fill="#7a5a3a"/>
    <circle cx="300" cy="660" r="26" fill="#7a5a3a"/>
    <circle cx="540" cy="660" r="26" fill="#7a5a3a"/>
  </g>
  <g>
    <ellipse cx="800" cy="700" rx="130" ry="46" fill="#3d2b1f" opacity="0.35"/>
    <rect x="730" y="610" width="140" height="16" rx="6" fill="#f3e9d8"/>
    <rect x="792" y="626" width="16" height="100" fill="#7a5a3a"/>
    <circle cx="660" cy="720" r="28" fill="#7a5a3a"/>
    <circle cx="940" cy="720" r="28" fill="#7a5a3a"/>
  </g>
  <g>
    <ellipse cx="1180" cy="640" rx="110" ry="40" fill="#3d2b1f" opacity="0.35"/>
    <rect x="1120" y="560" width="120" height="14" rx="6" fill="#e8ddce"/>
    <rect x="1170" y="574" width="20" height="90" fill="#7a5a3a"/>
    <circle cx="1060" cy="660" r="26" fill="#7a5a3a"/>
    <circle cx="1300" cy="660" r="26" fill="#7a5a3a"/>
  </g>
  <!-- ceiling lamps -->
  <line x1="420" y1="0" x2="420" y2="120" stroke="#3d2b1f" stroke-width="4"/>
  <ellipse cx="420" cy="140" rx="34" ry="18" fill="#e8c877"/>
  <line x1="800" y1="0" x2="800" y2="140" stroke="#3d2b1f" stroke-width="4"/>
  <ellipse cx="800" cy="160" rx="34" ry="18" fill="#e8c877"/>
  <line x1="1180" y1="0" x2="1180" y2="120" stroke="#3d2b1f" stroke-width="4"/>
  <ellipse cx="1180" cy="140" rx="34" ry="18" fill="#e8c877"/>
  <text x="800" y="55" font-family="Arial" font-size="22" fill="#ffffffaa" text-anchor="middle">ÖRNEK GÖRSEL — PreVue Demo Turu</text>
</svg>
